<?xml version="1.0" encoding="utf-8"?>
<!-- Generator: Adobe Illustrator 18.0.0, SVG Export Plug-In . SVG Version: 6.00 Build 0)  -->
<!DOCTYPE svg PUBLIC "-//W3C//DTD SVG 1.1//EN" "http://www.w3.org/Graphics/SVG/1.1/DTD/svg11.dtd">
<svg version="1.1" id="Layer_1" xmlns="http://www.w3.org/2000/svg" xmlns:xlink="http://www.w3.org/1999/xlink" x="0px" y="0px"
	 viewBox="0 0 64 64" enable-background="new 0 0 64 64" xml:space="preserve">
<g>
	<g>
		<g>
			<path fill="#FFD833" d="M32,0c17.7,0,32,14.3,32,32S49.7,64,32,64S0,49.7,0,32S14.3,0,32,0z"/>
		</g>
	</g>
	<g>
		<g>
			<path fill="#F94646" d="M50,27.3c0,0.1,0,0.5,0,0.7c0,9.6-17.3,22-17.3,22S14,37.6,14,28c0-0.1,0-0.6,0-0.7
				c0-5.1,4.4-9.3,9.6-9.3c3.9,0,7.5,2.4,8.9,5.9c1.4-3.4,4.6-5.9,8.5-5.9C46.2,18,50,22.2,50,27.3z"/>
		</g>
	</g>
	<g>
		<g>
			<g>
				<path fill="#FFFFFF" d="M18,29c-0.6,0-1-0.4-1-1c0-3.9,3.1-7,7-7c0.6,0,1,0.4,1,1s-0.4,1-1,1c-2.8,0-5,2.2-5,5
					C19,28.6,18.6,29,18,29z"/>
			</g>
		</g>
	</g>
</g>
</svg>
